<?xml version="1.0" encoding="utf-8"?>
<!-- Generator: Adobe Illustrator 24.1.0, SVG Export Plug-In . SVG Version: 6.00 Build 0)  -->
<svg version="1.1" id="Layer_1" xmlns="http://www.w3.org/2000/svg" xmlns:xlink="http://www.w3.org/1999/xlink" x="0px" y="0px"
	 width="260px" height="103px" viewBox="0 0 260 103" style="enable-background:new 0 0 260 103;" xml:space="preserve">
<style type="text/css">
	.st0{fill:#FFFFFF;}
</style>
<path class="st0" d="M196.8,23.7c-1.8-2.3-4.7-4.1-8.2-4.1c-5.6,0-9.3,4.5-9.3,9.5c0,5.2,4,9.5,9.6,9.5c2.9,0,5.9-1.5,7.9-4.1
	L196.8,23.7L196.8,23.7z M196.9,40.9c-2.3,2.1-5.5,3.3-8.9,3.3c-2.6,0-5.3-0.7-7.2-1.9c-4.4-2.6-7.4-7.4-7.4-13.1s3.1-10.6,7.4-13.2
	c2-1.2,4.4-1.8,7.1-1.8c3.3,0,6.4,1,9,3.3v-2.6h5.6v28.8h-5.6L196.9,40.9L196.9,40.9z M164.3,0.6c2.1,0,3.9,1.7,3.9,3.9
	c0,2.1-1.7,3.8-3.9,3.8s-3.8-1.7-3.8-3.8C160.5,2.3,162.1,0.6,164.3,0.6 M161.4,14.7h5.8v28.8h-5.8V14.7z M127.8,14.7h6l8.5,19.6
	l8.5-19.6h6l-12.5,28.8h-4L127.8,14.7z M120.4,0.6c2.1,0,3.9,1.7,3.9,3.9c0,2.1-1.7,3.8-3.9,3.8c-2.1,0-3.8-1.7-3.8-3.8
	C116.6,2.3,118.3,0.6,120.4,0.6 M117.6,14.7h5.8v28.8h-5.8C117.6,43.5,117.6,14.7,117.6,14.7z M103.4,0h5.8v43.5h-5.8
	C103.4,43.5,103.4,0,103.4,0z M75.5,38.3c8.8,0,15.3-6.9,15.3-16.3c0-9.3-6.6-16.3-15.3-16.3s-15.3,7-15.3,16.3
	C60.2,31.4,66.7,38.3,75.5,38.3 M75.5,0C87.7,0,97,9.6,97,22.1s-9.3,22.1-21.5,22.1c-12.1,0-21.5-9.6-21.5-22.1S63.4,0,75.5,0
	 M254.2,92.4c-2,2.6-5,4.1-7.9,4.1c-5.6,0-9.6-4.4-9.6-9.5c0-5,3.7-9.5,9.3-9.5c3.5,0,6.4,1.8,8.2,4.1L254.2,92.4L254.2,92.4z
	 M254.4,101.5h5.6V57.9h-5.8v17.2c-2.6-2.1-5.7-3.1-8.8-3.1c-2.7,0-5.1,0.7-7.1,1.8c-4.4,2.6-7.4,7.4-7.4,13.2
	c0,5.8,3,10.5,7.4,13.1c2,1.2,4.7,1.9,7.2,1.9c3.4,0,6.6-1.2,8.9-3.2V101.5z M218.6,101.5h5.8V57.9h-5.8V101.5z M198.6,77.1
	c3.4,0,6.7,2.6,7.6,6.3h-15.7C191.5,79.6,194.9,77.1,198.6,77.1 M212.2,88.3c0.1-0.6,0.1-1,0.1-1.2c0-8.5-5.8-15-13.9-15
	c-8.2,0-14,6.4-14,15s6.5,15,14.9,15c5.9,0,10-2.6,12.1-5.4l-3.8-3.6c-1.7,1.8-4,3.9-8.3,3.9c-5,0-9-3.9-9.3-8.7
	C190,88.3,212.2,88.3,212.2,88.3z M151.1,72.6h-6.7v5.2h6.7v23.6h5.8V77.9h15.6v23.6h5.8V72.6h-21.5V70c0-2.6,0.3-4.1,1.1-5.2
	c1-1.3,2.8-2,4.4-2c0.8,0,1.7,0.1,2.1,0.2l1.2-5.3c-0.8-0.2-2.2-0.4-3.4-0.4c-3.9,0-7.4,1.8-9.4,4.8c-1.3,1.8-1.8,4.2-1.8,8.1
	L151.1,72.6L151.1,72.6z M171.6,61.8c0,2.1,1.7,3.8,3.8,3.8s3.9-1.7,3.9-3.8c0-2.1-1.7-3.9-3.9-3.9S171.6,59.6,171.6,61.8 M119,98.1
	c3.2,2.6,7.1,4,11.7,4c5.6,0,10.7-3.4,10.7-8.8c0-5.9-5.9-8-10.5-9.1c-2.9-0.7-5.2-1.4-5.2-3.4c0-2.3,2.4-3.6,5.2-3.6
	c2.3,0,4.4,0.9,6.2,2.3l3-4.2c-2.3-1.8-5.3-3.2-9.6-3.2c-5.2,0-10.7,2.8-10.7,9c0,4,3.1,6.3,6.6,7.4c4.2,1.4,9,1.6,9,4.9
	c0,2.3-2.5,3.6-5,3.6c-2.9,0-5.8-1.1-8.5-3.2L119,98.1z M91.7,72.6H86v28.8h5.8V81.7c1.7-2.1,4.5-4.1,8.3-4.1c2.4,0,4.6,1.1,5.9,2.8
	c1,1.3,1.7,3,1.7,6.7v14.4h5.8V87.4c0-5-1-7.9-2.8-10.2c-2.5-3.1-6.3-5.1-10.5-5.1c-4.2,0-7.1,1.9-8.6,3.4V72.6z M71.8,92.4
	c-2,2.6-5,4.1-7.9,4.1c-5.6,0-9.6-4.4-9.6-9.5c0-5,3.7-9.5,9.3-9.5c3.5,0,6.4,1.8,8.2,4.1V92.4z M72,101.5h5.6V72.6H72v2.6
	C69.4,73,66.3,72,63,72c-2.7,0-5.1,0.7-7.1,1.8c-4.4,2.6-7.4,7.4-7.4,13.2c0,5.8,3,10.5,7.4,13.1c2,1.2,4.7,1.9,7.2,1.9
	c3.4,0,6.6-1.2,8.9-3.2V101.5z M35.6,72.6v28.9h6.1V58.5h-4.3L20.9,84.7L4.3,58.5H0v42.9h6.1V72.6l12.6,19.7H23L35.6,72.6z"/>
</svg>
