<?xml version="1.0" encoding="utf-8"?>
<!-- Generator: Adobe Illustrator 24.1.0, SVG Export Plug-In . SVG Version: 6.00 Build 0)  -->
<svg version="1.1" id="Layer_1" xmlns="http://www.w3.org/2000/svg" xmlns:xlink="http://www.w3.org/1999/xlink" x="0px" y="0px"
	 width="520px" height="54px" viewBox="0 0 520 54" style="enable-background:new 0 0 520 54;" xml:space="preserve">
<style type="text/css">
	.st0{fill:#FFFFFF;}
</style>
<path class="st0" d="M513,41.9c-2.3,3.1-5.9,4.9-9.4,4.9c-6.7,0-11.4-5.2-11.4-11.3c0-6,4.4-11.3,11-11.3c4.2,0,7.7,2.1,9.8,4.9
	L513,41.9L513,41.9z M513.3,52.7h6.7v-52h-7v20.6c-3.1-2.6-6.8-3.7-10.5-3.7c-3.2,0-6.1,0.8-8.4,2.2c-5.2,3.1-8.9,8.9-8.9,15.7
	c0,6.9,3.6,12.6,8.8,15.7c2.3,1.4,5.6,2.3,8.6,2.3c4.1,0,7.8-1.4,10.6-3.9L513.3,52.7L513.3,52.7L513.3,52.7z M470.7,52.7h7v-52h-7
	V52.7z M446.7,23.6c4.1,0,8,3.1,9.1,7.5h-18.7C438.2,26.6,442.3,23.6,446.7,23.6 M463,37c0.1-0.7,0.1-1.2,0.1-1.5
	c0-10.2-7-17.9-16.5-17.9c-9.7,0-16.8,7.6-16.8,17.9c0,10.3,7.8,17.9,17.8,17.9c7,0,11.9-3.1,14.5-6.4l-4.5-4.3
	c-2,2.2-4.8,4.7-9.9,4.7c-6,0-10.8-4.6-11.1-10.4L463,37L463,37L463,37z M390,18.3h-8v6.2h8v28.2h7V24.5h18.7v28.2h7V18.3H397v-3.1
	c0-3.1,0.4-4.9,1.3-6.1c1.2-1.5,3.3-2.4,5.3-2.4c0.9,0,2,0.1,2.6,0.3l1.5-6.4c-1-0.3-2.6-0.5-4.1-0.5c-4.7,0-8.8,2.1-11.3,5.7
	c-1.5,2.2-2.2,5-2.2,9.7L390,18.3L390,18.3z M414.5,5.3c0,2.6,2,4.5,4.5,4.5c2.6,0,4.6-2,4.6-4.5s-2.1-4.6-4.6-4.6
	C416.5,0.7,414.5,2.8,414.5,5.3 M351.7,48.7c3.8,3.1,8.4,4.8,13.9,4.8c6.7,0,12.8-4,12.8-10.5c0-7.1-7.1-9.5-12.5-10.9
	c-3.4-0.9-6.1-1.7-6.1-4c0-2.7,2.9-4.3,6.2-4.3c2.8,0,5.3,1.1,7.4,2.7l3.6-5c-2.7-2.2-6.4-3.8-11.4-3.8c-6.1,0-12.7,3.4-12.7,10.8
	c0,4.8,3.7,7.5,7.9,8.9c5,1.7,10.8,1.9,10.8,5.9c0,2.7-3,4.3-6,4.3c-3.4,0-7-1.3-10.2-3.8L351.7,48.7z M319.2,18.3h-6.7v34.4h7V29.1
	c2-2.5,5.3-4.9,9.9-4.9c2.9,0,5.5,1.3,7.1,3.4c1.2,1.5,2,3.6,2,8v17.2h7V35.9c0-5.9-1.2-9.4-3.4-12.2c-2.9-3.7-7.5-6.1-12.5-6.1
	c-5,0-8.5,2.3-10.3,4L319.2,18.3C319.1,18.3,319.2,18.3,319.2,18.3z M295.5,41.9c-2.3,3.1-5.9,4.9-9.4,4.9
	c-6.7,0-11.4-5.2-11.4-11.3c0-6,4.4-11.3,11-11.3c4.2,0,7.7,2.1,9.8,4.9L295.5,41.9L295.5,41.9z M295.7,52.7h6.7V18.3h-6.7v3.1
	c-3.1-2.7-6.9-3.9-10.8-3.9c-3.2,0-6.1,0.8-8.4,2.2c-5.2,3.1-8.9,8.9-8.9,15.7c0,6.9,3.6,12.6,8.8,15.7c2.3,1.4,5.6,2.3,8.6,2.3
	c4.1,0,7.8-1.4,10.6-3.9L295.7,52.7L295.7,52.7L295.7,52.7z M252.2,18.2v34.5h7.3V1.5h-5.1l-19.8,31.2L214.9,1.5h-5.1v51.2h7.3V18.2
	l15,23.5h5.1L252.2,18.2z M170.3,41.9c-2.3,3.1-5.9,4.9-9.4,4.9c-6.7,0-11.4-5.2-11.4-11.3c0-6,4.4-11.3,11-11.3
	c4.2,0,7.7,2.1,9.8,4.9L170.3,41.9L170.3,41.9z M170.5,52.7h6.7V18.3h-6.7v3.1c-3.1-2.7-6.9-3.9-10.8-3.9c-3.2,0-6.1,0.8-8.4,2.2
	c-5.2,3.1-8.9,8.9-8.9,15.7c0,6.9,3.6,12.6,8.8,15.7c2.3,1.4,5.6,2.3,8.6,2.3c4.1,0,7.8-1.4,10.6-3.9L170.5,52.7L170.5,52.7
	L170.5,52.7z M127,6.1c0,2.6,2,4.5,4.5,4.5c2.6,0,4.6-2,4.6-4.5s-2-4.6-4.6-4.6C129,1.5,127,3.5,127,6.1 M128.1,52.7h7V18.3h-7V52.7
	z M102.9,52.7h4.8l14.9-34.4h-7.2l-10.2,23.4L95.2,18.3H88L102.9,52.7C103,52.7,103,52.7,102.9,52.7z M74.7,6.1c0,2.6,2,4.5,4.5,4.5
	s4.6-2,4.6-4.5s-2-4.6-4.6-4.6S74.7,3.5,74.7,6.1 M75.8,52.7h7V18.3h-7V52.7z M58.8,52.7h7v-52h-7V52.7L58.8,52.7z M7.3,27.1
	c0-11,7.8-19.4,18.3-19.4c10.5,0,18.3,8.3,18.3,19.4c0,11.1-7.8,19.4-18.3,19.4C15.1,46.5,7.3,38.2,7.3,27.1 M0,27.1
	C0,42,11.1,53.4,25.6,53.4C40.1,53.4,51.2,42,51.2,27S40.1,0.7,25.6,0.7C11.1,0.7,0,12.1,0,27.1"/>
</svg>
