<?xml version="1.0" encoding="utf-8"?>
<!-- Generator: Adobe Illustrator 16.0.0, SVG Export Plug-In . SVG Version: 6.00 Build 0)  -->
<!DOCTYPE svg PUBLIC "-//W3C//DTD SVG 1.1//EN" "http://www.w3.org/Graphics/SVG/1.1/DTD/svg11.dtd">
<svg version="1.1" id="Layer_1" xmlns="http://www.w3.org/2000/svg" xmlns:xlink="http://www.w3.org/1999/xlink" x="0px" y="0px"
	 width="520px" height="54px" viewBox="0 0 520 54" enable-background="new 0 0 520 54" xml:space="preserve">
<path fill="#FFFFFF" d="M513.048,41.93c-2.341,3.146-5.927,4.902-9.438,4.902c-6.659,0-11.416-5.195-11.416-11.342
	c0-6,4.391-11.342,11.05-11.342c4.171,0,7.683,2.122,9.805,4.903V41.93z M513.268,52.686H520V0.732h-6.952v20.562
	c-3.073-2.561-6.805-3.732-10.537-3.732c-3.22,0-6.073,0.805-8.415,2.195c-5.195,3.074-8.854,8.854-8.854,15.733
	s3.585,12.586,8.781,15.659c2.341,1.391,5.561,2.269,8.634,2.269c4.098,0,7.83-1.391,10.61-3.878V52.686z M470.651,52.686h6.951
	V0.731h-6.951V52.686z M446.737,23.636c4.098,0,8.049,3.073,9.073,7.464h-18.732C438.249,26.636,442.273,23.636,446.737,23.636
	 M462.982,36.954c0.072-0.659,0.072-1.171,0.072-1.464c0-10.171-6.952-17.928-16.538-17.928c-9.731,0-16.757,7.61-16.757,17.928
	c0,10.317,7.757,17.928,17.782,17.928c7.025,0,11.927-3.146,14.489-6.439l-4.537-4.317c-1.977,2.195-4.757,4.684-9.879,4.684
	c-6,0-10.757-4.61-11.123-10.391H462.982z M390.026,18.294h-8.05v6.22h8.05v28.172h6.951V24.514h18.66v28.172h6.951V18.294h-25.611
	v-3.147c0-3.146,0.366-4.902,1.317-6.146c1.171-1.537,3.293-2.415,5.27-2.415c0.95,0,2.049,0.146,2.561,0.293l1.464-6.367
	C406.637,0.22,404.954,0,403.491,0c-4.685,0-8.781,2.122-11.27,5.708c-1.537,2.195-2.195,5.049-2.195,9.659V18.294z M414.54,5.342
	c0,2.561,1.976,4.537,4.537,4.537c2.561,0,4.61-1.976,4.61-4.537s-2.05-4.61-4.61-4.61C416.516,0.732,414.54,2.781,414.54,5.342
	 M351.749,48.662c3.805,3.072,8.415,4.756,13.904,4.756c6.731,0,12.805-4.024,12.805-10.537c0-7.098-7.098-9.513-12.513-10.903
	c-3.439-0.878-6.146-1.683-6.146-4.024c0-2.708,2.854-4.317,6.219-4.317c2.781,0,5.27,1.097,7.392,2.707l3.586-4.976
	c-2.708-2.195-6.366-3.805-11.416-3.805c-6.146,0-12.732,3.366-12.732,10.756c0,4.83,3.732,7.465,7.903,8.854
	c5.049,1.683,10.757,1.903,10.757,5.854c0,2.708-3.001,4.318-6.001,4.318c-3.438,0-6.951-1.318-10.171-3.806L351.749,48.662z
	 M319.158,18.294h-6.732v34.392h6.951V29.051c2.049-2.488,5.342-4.903,9.879-4.903c2.854,0,5.488,1.317,7.098,3.366
	c1.244,1.537,2.05,3.586,2.05,7.977v17.195h6.952v-16.83c0-5.927-1.172-9.44-3.366-12.22c-2.927-3.732-7.464-6.074-12.514-6.074
	c-4.976,0-8.488,2.269-10.317,4.025V18.294z M295.493,41.93c-2.341,3.146-5.927,4.902-9.439,4.902
	c-6.659,0-11.416-5.195-11.416-11.342c0-6,4.392-11.342,11.05-11.342c4.172,0,7.684,2.122,9.806,4.903V41.93z M295.713,52.686h6.732
	V18.294h-6.732v3.146c-3.146-2.707-6.879-3.878-10.757-3.878c-3.22,0-6.074,0.805-8.415,2.195
	c-5.196,3.074-8.854,8.854-8.854,15.733s3.585,12.586,8.78,15.659c2.341,1.391,5.562,2.269,8.634,2.269
	c4.099,0,7.83-1.391,10.611-3.878V52.686z M252.218,18.221v34.465h7.318V1.464h-5.122L234.656,32.71L214.899,1.464h-5.122v51.222
	h7.317V18.221l15.001,23.489h5.122L252.218,18.221z M170.263,41.93c-2.342,3.146-5.927,4.902-9.44,4.902
	c-6.659,0-11.415-5.195-11.415-11.342c0-6,4.39-11.342,11.049-11.342c4.171,0,7.684,2.122,9.806,4.903V41.93z M170.482,52.686h6.733
	V18.294h-6.733v3.146c-3.146-2.707-6.878-3.878-10.756-3.878c-3.22,0-6.074,0.805-8.416,2.195
	c-5.195,3.074-8.854,8.854-8.854,15.733s3.586,12.586,8.781,15.659c2.342,1.391,5.562,2.269,8.635,2.269
	c4.098,0,7.83-1.391,10.61-3.878V52.686z M126.994,6.074c0,2.561,1.976,4.537,4.537,4.537c2.561,0,4.61-1.976,4.61-4.537
	s-2.049-4.61-4.61-4.61C128.97,1.464,126.994,3.513,126.994,6.074 M128.092,52.686h6.952V18.294h-6.952V52.686z M102.95,52.686
	h4.829l14.928-34.392h-7.171L105.365,41.71L95.193,18.294h-7.171L102.95,52.686z M74.667,6.074c0,2.561,1.976,4.537,4.537,4.537
	s4.61-1.976,4.61-4.537s-2.049-4.61-4.61-4.61S74.667,3.513,74.667,6.074 M75.765,52.686h6.952V18.294h-6.952V52.686z M58.84,52.686
	h6.952V0.731H58.84V52.686z M7.318,27.075c0-11.049,7.829-19.392,18.293-19.392c10.465,0,18.294,8.342,18.294,19.392
	c0,11.123-7.829,19.392-18.294,19.392C15.147,46.467,7.318,38.198,7.318,27.075 M0,27.075c0,14.928,11.123,26.343,25.611,26.343
	c14.489,0,25.612-11.415,25.612-26.343c0-14.928-11.123-26.343-25.612-26.343C11.123,0.732,0,12.147,0,27.075"/>
</svg>
