<?xml version="1.0" encoding="utf-8"?>
<!-- Generator: Adobe Illustrator 16.0.0, SVG Export Plug-In . SVG Version: 6.00 Build 0)  -->
<!DOCTYPE svg PUBLIC "-//W3C//DTD SVG 1.1//EN" "http://www.w3.org/Graphics/SVG/1.1/DTD/svg11.dtd">
<svg version="1.1" id="Layer_1" xmlns="http://www.w3.org/2000/svg" xmlns:xlink="http://www.w3.org/1999/xlink" x="0px" y="0px"
	 width="300px" height="118px" viewBox="0 0 300 118" enable-background="new 0 0 300 118" xml:space="preserve">
<path fill="#FFFFFF" d="M227.02,27.385c-2.054-2.688-5.449-4.741-9.483-4.741c-6.439,0-10.685,5.166-10.685,10.969
	c0,5.944,4.599,10.969,11.038,10.969c3.397,0,6.864-1.698,9.13-4.741V27.385z M227.231,47.199
	c-2.689,2.406-6.299,3.752-10.262,3.752c-2.972,0-6.086-0.85-8.35-2.194c-5.024-2.972-8.492-8.492-8.492-15.144
	s3.538-12.242,8.563-15.215c2.264-1.344,5.023-2.123,8.138-2.123c3.75,0,7.359,1.133,10.402,3.752v-3.043h6.51v33.258h-6.51V47.199z
	 M189.563,0.707c2.477,0,4.458,1.982,4.458,4.459s-1.981,4.388-4.458,4.388c-2.478,0-4.388-1.911-4.388-4.388
	S187.086,0.707,189.563,0.707 M186.237,16.984h6.723v33.258h-6.723V16.984z M147.488,16.984h6.935l9.836,22.645l9.836-22.645h6.936
	l-14.437,33.258h-4.67L147.488,16.984z M138.961,0.707c2.477,0,4.458,1.982,4.458,4.459s-1.981,4.388-4.458,4.388
	s-4.388-1.911-4.388-4.388S136.484,0.707,138.961,0.707 M135.635,16.984h6.723v33.258h-6.723V16.984z M119.267,0h6.723v50.242
	h-6.723V0z M87.134,44.227c10.119,0,17.691-7.995,17.691-18.752c0-10.687-7.572-18.753-17.691-18.753
	c-10.119,0-17.691,8.066-17.691,18.753C69.443,36.232,77.015,44.227,87.134,44.227 M87.134,0c14.011,0,24.767,11.039,24.767,25.476
	s-10.756,25.476-24.767,25.476c-14.011,0-24.767-11.039-24.767-25.476S73.123,0,87.134,0 M293.277,106.674
	c-2.265,3.041-5.732,4.74-9.128,4.74c-6.44,0-11.039-5.025-11.039-10.969c0-5.803,4.245-10.969,10.685-10.969
	c4.033,0,7.43,2.053,9.482,4.742V106.674z M293.49,117.076H300V66.832h-6.723v19.885c-2.973-2.477-6.581-3.609-10.19-3.609
	c-3.113,0-5.873,0.779-8.138,2.123c-5.024,2.973-8.562,8.562-8.562,15.215s3.468,12.172,8.492,15.145
	c2.265,1.344,5.378,2.191,8.351,2.191c3.963,0,7.571-1.344,10.261-3.75V117.076z M252.277,117.076H259V66.834h-6.723V117.076z
	 M229.151,88.982c3.963,0,7.784,2.973,8.774,7.217h-18.115C220.942,91.883,224.835,88.982,229.151,88.982 M244.861,101.861
	c0.069-0.637,0.069-1.133,0.069-1.416c0-9.836-6.722-17.338-15.991-17.338c-9.412,0-16.205,7.361-16.205,17.338
	c0,9.979,7.501,17.336,17.195,17.336c6.793,0,11.534-3.041,14.012-6.227l-4.389-4.174c-1.909,2.123-4.599,4.529-9.553,4.529
	c-5.802,0-10.402-4.459-10.756-10.049H244.861z M174.311,83.816h-7.785v6.016h7.785v27.244h6.722V89.832h18.045v27.244h6.722v-33.26
	h-24.767v-3.043c0-3.043,0.354-4.742,1.273-5.943c1.133-1.486,3.185-2.336,5.096-2.336c0.92,0,1.98,0.141,2.477,0.283l1.415-6.156
	c-0.92-0.283-2.548-0.496-3.963-0.496c-4.529,0-8.492,2.053-10.898,5.52c-1.485,2.123-2.121,4.883-2.121,9.34V83.816z
	 M198.015,71.291c0,2.477,1.911,4.387,4.389,4.387c2.477,0,4.458-1.91,4.458-4.387s-1.981-4.459-4.458-4.459
	C199.926,66.832,198.015,68.814,198.015,71.291 M137.294,113.184c3.68,2.971,8.138,4.598,13.445,4.598
	c6.51,0,12.384-3.891,12.384-10.189c0-6.863-6.864-9.199-12.101-10.543c-3.326-0.85-5.944-1.627-5.944-3.893
	c0-2.617,2.76-4.174,6.015-4.174c2.689,0,5.096,1.061,7.147,2.617l3.467-4.811c-2.618-2.123-6.156-3.682-11.039-3.682
	c-5.944,0-12.313,3.256-12.313,10.402c0,4.672,3.609,7.219,7.643,8.562c4.882,1.629,10.402,1.842,10.402,5.662
	c0,2.617-2.901,4.176-5.804,4.176c-3.325,0-6.722-1.275-9.835-3.682L137.294,113.184z M105.777,83.816h-6.511v33.26h6.723V94.219
	c1.981-2.406,5.166-4.742,9.553-4.742c2.76,0,5.307,1.275,6.864,3.256c1.203,1.486,1.982,3.467,1.982,7.713v16.631h6.722v-16.277
	c0-5.732-1.132-9.127-3.255-11.816c-2.831-3.609-7.218-5.875-12.101-5.875c-4.812,0-8.208,2.195-9.977,3.893V83.816z
	 M82.892,106.674c-2.265,3.041-5.732,4.74-9.129,4.74c-6.439,0-11.039-5.025-11.039-10.969c0-5.803,4.246-10.969,10.685-10.969
	c4.034,0,7.431,2.053,9.483,4.742V106.674z M83.104,117.076h6.51v-33.26h-6.51v3.043c-3.043-2.619-6.652-3.752-10.402-3.752
	c-3.114,0-5.874,0.779-8.138,2.123c-5.024,2.973-8.563,8.562-8.563,15.215s3.468,12.172,8.492,15.145
	c2.265,1.344,5.378,2.191,8.35,2.191c3.963,0,7.572-1.344,10.261-3.75V117.076z M41.043,83.746v33.33h7.076V67.541h-4.953
	L24.06,97.756L4.953,67.541H0v49.535h7.076v-33.33l14.507,22.715h4.953L41.043,83.746z"/>
</svg>
